<svg xmlns="http://www.w3.org/2000/svg" viewBox="0 0 327.33 82.88"><defs><style>.cls-1{fill:#fff;}</style></defs><g id="Calque_2" data-name="Calque 2"><g id="Calque_1-2" data-name="Calque 1"><path class="cls-1" d="M70,29.21C70,6.62,54.31,0,38.43,0H0V82.77l73.44.11-14-29C65.69,47.71,70,42.1,70,29.21ZM46.81,69.7H17L22,43.45a12.66,12.66,0,0,1-5.78-10.64,120.47,120.47,0,0,1,2.69-19.63c1.93,1.53,4,3.08,6.15,4.62a38.78,38.78,0,0,1,13.59,0c2.16-1.54,4.22-3.09,6.15-4.62a120.47,120.47,0,0,1,2.69,19.63,12.66,12.66,0,0,1-5.78,10.64l3.09,16h4.35Z"/><path class="cls-1" d="M109.63,29.77V40.36c-4.3-1-8.86.39-10.78,3.34V61.23H87.93V30.41h9.63v4.18C99.68,31.5,103.6,29.13,109.63,29.77Z"/><path class="cls-1" d="M144.68,30.41V61.23h-9.63V57.7a12.91,12.91,0,0,1-9.82,4.49c-8.47,0-12.32-5.71-12.32-12.65V30.41h10.91V48.07c0,3.27,2,4.81,4.69,4.81a6.88,6.88,0,0,0,5.26-2.69V30.41Z"/><path class="cls-1" d="M158.94,16.29V32.92a12.37,12.37,0,0,1,9.18-3.47c10.33,0,14.89,8.41,14.89,16.37s-4.56,16.37-14.89,16.37c-5.52,0-8.93-2.57-10.47-5.14v4.18H148V16.29Zm6.22,22.15a6.93,6.93,0,0,0-6.22,3.85v7.06a6.93,6.93,0,0,0,6.22,3.85c4.63,0,6.62-3.79,6.62-7.38S169.79,38.44,165.16,38.44Z"/><path class="cls-1" d="M204.26,30.41H215.5l-12.91,34c-3.53,9.24-8.86,11.74-14.12,11.74a23.51,23.51,0,0,1-5.65-.83v-9a18.17,18.17,0,0,0,4.17.52c2.7,0,4.95-1.55,6.42-4.88l-14.5-31.59h11.55L198,48.77Z"/><path class="cls-1" d="M230.07,29.58a18.66,18.66,0,0,1,9.5,2.37v6.29A15.09,15.09,0,0,0,231,35.68c-5.45,0-11,2.89-11,10.14,0,7,5.33,10.14,10.85,10.14a18.53,18.53,0,0,0,9-2.37v6.35a23.06,23.06,0,0,1-10.2,2.12c-8.22,0-16.63-5-16.63-16C213.06,34.59,221.85,29.58,230.07,29.58Z"/><path class="cls-1" d="M271.86,56.35a7,7,0,0,0,2.06-.39v4.95a12.12,12.12,0,0,1-4.37.77c-2.82,0-5.07-1.1-6.16-3.6a17.88,17.88,0,0,1-11.62,4C246.19,62.06,241,59,241,52.62c0-7.89,7.32-10.33,13.73-10.33a40.47,40.47,0,0,1,8,.9V42.1c0-3.86-2.83-6.55-8.09-6.55a27.45,27.45,0,0,0-11.11,2.37V31.63a37.91,37.91,0,0,1,11.82-2.05c8.73,0,14.25,4.17,14.25,13.48v11A2,2,0,0,0,271.86,56.35Zm-23.81-4.17c0,3,2.69,4.55,5.78,4.55a12.53,12.53,0,0,0,8.92-3.66v-5.2a36.33,36.33,0,0,0-6.68-.77C252.16,47.1,248.05,48.32,248.05,52.18Z"/><path class="cls-1" d="M284.19,19.44v11h11.17v6H284.19V50.57c0,4,1.86,5.39,5.84,5.39a16.55,16.55,0,0,0,6.23-1.22v5.91A25.24,25.24,0,0,1,288,62c-6,0-10.59-3-10.59-10.15V36.45h-5.52v-6h5.52v-9.3Z"/><path class="cls-1" d="M218.4,71.63a6,6,0,0,1,2.77.65v2.28a4.6,4.6,0,0,0-2.39-.67c-1.42,0-2.78.69-2.78,2.5a2.49,2.49,0,0,0,2.74,2.5,5.06,5.06,0,0,0,2.52-.65v2.29a7.56,7.56,0,0,1-3,.6c-2.45,0-4.89-1.42-4.89-4.61C213.35,73.09,215.92,71.63,218.4,71.63Z"/><path class="cls-1" d="M226.5,71.65c2.61,0,4.95,1.6,4.95,4.74s-2.34,4.74-4.95,4.74a4.61,4.61,0,0,1-4.94-4.74C221.56,73.25,223.91,71.65,226.5,71.65Zm0,2.31a2.43,2.43,0,1,0,2.32,2.43A2.22,2.22,0,0,0,226.5,74Z"/><path class="cls-1" d="M237.49,71.65a3.44,3.44,0,0,1,3.64,3.68v5.54h-2.59V75.66a1.6,1.6,0,0,0-1.74-1.77,2.51,2.51,0,0,0-2,1.14v5.84h-2.6v-9h2.3v1.14A3.87,3.87,0,0,1,237.49,71.65Z"/><path class="cls-1" d="M245.46,68.68v3.23h2.84v2.18h-2.84V77.6c0,.93.47,1.35,1.44,1.35a4.36,4.36,0,0,0,1.62-.3v2.09a7.38,7.38,0,0,1-2.41.39c-1.73,0-3.23-.8-3.23-3v-4h-1.51V71.91h1.51V69.3Z"/><path class="cls-1" d="M255,71.72v2.52a3.07,3.07,0,0,0-3.32,1.37v5.26h-2.59v-9h2.29v1.34A3.79,3.79,0,0,1,255,71.72Z"/><path class="cls-1" d="M259.68,71.65c2.61,0,4.94,1.6,4.94,4.74s-2.33,4.74-4.94,4.74-5-1.61-5-4.74S257.08,71.65,259.68,71.65Zm0,2.31A2.43,2.43,0,1,0,262,76.39,2.22,2.22,0,0,0,259.68,74Z"/><path class="cls-1" d="M268,67.24V80.87h-2.59V67.24Z"/><path class="cls-1" d="M285,80.87h-3l-1.06-1a7.39,7.39,0,0,1-4.24,1.25c-2.76,0-4.55-1.46-4.55-3.49,0-1.75,1.27-2.82,2.59-3.57a4.6,4.6,0,0,1-1.45-3c0-2,1.83-3.57,4.38-3.57,2.24,0,3.94,1.33,3.94,3.27s-1.7,2.93-3.25,3.69l2.39,2.32a4.45,4.45,0,0,0,.62-2.33H284a6.52,6.52,0,0,1-1.45,4ZM277.11,79a4.2,4.2,0,0,0,2.22-.62l-3-2.78c-.8.45-1.47,1-1.47,1.85S275.67,79,277.11,79Zm.56-9.32a1.67,1.67,0,0,0-1.85,1.52,2.83,2.83,0,0,0,1.08,1.9c1.12-.52,2.28-1.16,2.28-2.13C279.18,70.16,278.66,69.63,277.67,69.63Z"/><path class="cls-1" d="M291.27,68.68v3.23h2.83v2.18h-2.83V77.6c0,.93.46,1.35,1.44,1.35a4.36,4.36,0,0,0,1.62-.3v2.09a7.38,7.38,0,0,1-2.41.39c-1.73,0-3.23-.8-3.23-3v-4h-1.51V71.91h1.51V69.3Z"/><path class="cls-1" d="M300.8,71.72v2.52a3.07,3.07,0,0,0-3.32,1.37v5.26h-2.59v-9h2.29v1.34A3.78,3.78,0,0,1,300.8,71.72Z"/><path class="cls-1" d="M309.78,79.15a1.64,1.64,0,0,0,.48-.07v1.69a4.33,4.33,0,0,1-1.43.27,2.1,2.1,0,0,1-2-1,5,5,0,0,1-3.23,1.1c-1.68,0-3.13-1-3.13-2.74,0-2.28,2.14-3,3.93-3a9.72,9.72,0,0,1,2.13.24v-.31c0-.9-.71-1.52-2.11-1.52a8.49,8.49,0,0,0-3.17.68V72.25a11.46,11.46,0,0,1,3.47-.6c2.69,0,4.4,1.1,4.4,4v2.85C309.14,79,309.44,79.15,309.78,79.15Zm-6.64-1c0,.67.61,1.1,1.4,1.1a2.93,2.93,0,0,0,2-.73v-1.4A7.29,7.29,0,0,0,305,77C304.07,77,303.14,77.27,303.14,78.18Z"/><path class="cls-1" d="M315.12,71.63a5.94,5.94,0,0,1,2.76.65v2.28a4.6,4.6,0,0,0-2.39-.67c-1.42,0-2.78.69-2.78,2.5a2.49,2.49,0,0,0,2.74,2.5,5.06,5.06,0,0,0,2.52-.65v2.29a7.53,7.53,0,0,1-3,.6c-2.45,0-4.89-1.42-4.89-4.61C310.06,73.09,312.63,71.63,315.12,71.63Z"/><path class="cls-1" d="M322.88,71.65c3.71,0,4.91,2.93,4.31,5.58h-6.31c.3,1.3,1.68,1.85,3.15,1.85a6.64,6.64,0,0,0,2.71-.55v2a8.6,8.6,0,0,1-3.28.56c-2.84,0-5.19-1.62-5.19-4.74A4.51,4.51,0,0,1,322.88,71.65Zm.09,2a2,2,0,0,0-2.11,1.92h4A1.73,1.73,0,0,0,323,73.63Z"/></g></g></svg>